<svg xmlns="http://www.w3.org/2000/svg" xml:space="preserve" viewBox="0 0 1000 1000">
  <path d="M990 167c-3-39-20-77-47-104l-7-7c-28-29-66-45-106-45-38 0-73 15-99 41L116 666C69 714 20 906 11 944c-3 11 0 22 8 29l7 7a31 31 0 0 0 28 8c39-9 235-54 283-101l614-615c28-27 41-64 39-105zm-277 72a15 15 0 0 0 22 0l46-46 29 29-536 536-29-29 445-445a15 15 0 1 0-21-22L223 707l-31-31 536-535 31 31-46 46c-6 6-6 15 0 21zM327 811l-31-31 535-536 31 31-535 536zm-221 21 63 63c-29 9-60 17-88 24 7-28 16-58 25-87zm96 53-85-85c15-43 31-79 43-91l11-11 42 42 92 92-11 11c-12 12-48 27-92 42zm706-656-24 24-92-92-42-42 24-24c15-14 35-23 56-23 23 0 46 10 63 27l7 7c17 17 27 40 29 64 1 24-6 45-21 59z"/>
</svg>
