<?xml version="1.0" encoding="utf-8"?>
<!-- Svg Vector Icons : http://www.onlinewebfonts.com/icon -->
<!DOCTYPE svg PUBLIC "-//W3C//DTD SVG 1.1//EN" "http://www.w3.org/Graphics/SVG/1.1/DTD/svg11.dtd">
<svg version="1.1" xmlns="http://www.w3.org/2000/svg" xmlns:xlink="http://www.w3.org/1999/xlink" x="0px" y="0px" viewBox="0 0 1000 1000" enable-background="new 0 0 1000 1000" xml:space="preserve">
<metadata> Svg Vector Icons : http://www.onlinewebfonts.com/icon </metadata>
<g><path d="M989.7,166.5c-2.3-38.7-19.3-76.6-46.7-104l-6.7-6.7C907.6,27,869.7,11.2,829.8,11.2c-37.7,0-72.9,14.4-99.1,40.6L116.3,666.1c-47.4,47.4-96.1,240-105.4,278.2c-2.5,10.4,0.5,21.4,8.1,28.9l6.7,6.6c5.8,5.8,13.6,9,21.7,9c2.2,0,4.4-0.2,6.6-0.7c38.9-8.6,235.4-53.7,283-101.3l614.4-614.4C978.5,245.3,992.2,207.6,989.7,166.5z M713,239.4c3,3,6.9,4.5,10.8,4.5c3.9,0,7.8-1.5,10.8-4.5l46.2-46.2l29,29L274.1,758l-29-29l445.2-445.2c6-6,6-15.7,0-21.7c-6-6-15.7-6-21.7,0L223.4,707.3l-30.9-30.9l535.7-535.7l30.9,30.9L713,217.8C707,223.8,707,233.4,713,239.4z M326.6,810.5l-30.9-30.9l535.7-535.7l30.9,30.9L326.6,810.5z M106.2,832.4l62.6,62.6c-29,8.7-59.6,16.9-88.1,24C88.2,891,97,860.9,106.2,832.4z M201.7,884.7L117,800c15.2-43.2,30.5-78.6,42.5-90.6l11.3-11.3l41.7,41.7c0,0,0,0,0,0s0,0,0,0l92.3,92.3l-11.3,11.3C281.7,855.4,245.7,870.2,201.7,884.7z M908,229.1l-24,24l-92.3-92.3l0,0c0,0,0,0,0,0l-41.7-41.7l24-24c14.6-14.6,34.5-22.7,55.8-22.7c23.6,0,46,9.5,63.3,26.7l6.7,6.7c17,16.9,27.5,40.4,28.9,64.3C930,193.5,922.7,214.5,908,229.1z"/></g>
</svg>