<svg xmlns="http://www.w3.org/2000/svg" preserveAspectRatio="xMidYMid" viewBox="0 0 256 256">
  <path fill="#EA6618" d="M256 236V20c0-9-6-17-14-19l-9 5-103 109-3 10-2 10 32 119 5 2h74c11 0 20-9 20-20"/>
  <path fill="#d65813" d="M0 20v216c0 7 3 13 9 17l6-3 108-116 4-9v-8L98 5l-4-5H20C9 0 0 9 0 20"/>
  <path fill="#e05e11" d="M127 125 242 1a20 20 0 0 0-6-1H94l33 125z"/>
  <path fill="#de5c16" d="M20 256h142l-35-131L8 253a20 20 0 0 0 12 3"/>
  <path fill="#FFF" d="M95 97h14c6 21 12 40 19 57 9-19 15-38 20-57h13c-6 24-16 48-27 73h-12c-11-24-20-48-27-73zM48 60h32v136H48v-11h19V70H48V60zm160 10h-19v115h19v11h-31V60h31v10z"/>
</svg>
