<svg xmlns="http://www.w3.org/2000/svg" preserveAspectRatio="xMidYMid" viewBox="0 0 256 140">
  <path fill="#62DAFB" d="m190 91-15 3h-4c-11 2-15 6-16 18-1 6-3 12-6 17-6 8-18 12-27 9-11-4-17-13-16-24 0-10 8-19 19-21l16-2c9-1 14-5 15-15 1-6 0-11-1-16-2-8-8-12-17-12-6-1-11-1-16-3-11-3-17-12-16-23 0-10 8-19 17-21 11-3 22 2 27 11l5 17c1 10 5 14 16 15l19 4c10 3 15 12 15 22 0 9-6 18-15 21Z"/>
  <path d="M78 93a23 23 0 0 1 0-47 23 23 0 0 1 0 47ZM23 139a23 23 0 0 1 0-46 23 23 0 0 1 0 46ZM233 139a23 23 0 0 1 0-46 23 23 0 0 1 0 46Z"/>
</svg>
