<svg xmlns="http://www.w3.org/2000/svg" xml:space="preserve" viewBox="0 0 1000 1000">
  <path d="M423 13c-27 8-48 25-61 50-7 14-7 16-8 63 0 46 0 48 5 54 15 16 56 12 64-6 1-3 3-22 3-43 0-33 0-38 5-42 3-3 7-6 11-7h123l6 8c6 7 6 8 6 46 0 42 0 42 15 50 9 5 33 5 43-1 13-6 14-10 13-59-1-43-1-44-9-60a96 96 0 0 0-47-47l-16-8-70-1c-55 0-72 0-83 3z"/>
  <path d="M294 49c-76 19-129 44-160 76-26 29-34 50-34 100 0 47 8 71 30 94l11 12 18 177 27 267c9 89 9 89 18 107 26 54 96 88 210 105 36 5 147 4 183-2 108-17 175-51 200-102 9-18 6 6 51-429l12-120 10-13c25-30 30-45 30-96 0-49-4-64-25-92-26-33-98-69-171-85l-24-5 5 14c3 7 6 22 7 33l2 20 25 7c83 23 128 60 117 95-4 15-27 37-50 49-132 69-426 71-564 3-51-25-69-54-51-84 14-26 58-48 133-69 2-1 4-9 4-19 1-10 4-24 7-33l5-15-26 5zm-20 347c10 3 25 16 30 27 3 5 9 60 21 169a45582 45582 0 0 0 24 246c0 13-1 15-8 21-18 15-48 2-56-25-3-9-44-398-44-417 0-9 1-13 7-17 7-7 13-7 26-4zm481 3c5 5 6 7 6 18 0 19-40 405-43 417-6 20-29 35-48 31-7-2-15-11-17-18-2-11 41-416 45-424 13-24 41-36 57-24zm-236 34c3 1 7 5 10 8 4 5 4 21 4 220v214l-6 8c-17 20-51 15-58-9-2-7-2-75-2-219 1-205 1-209 6-215l10-8c8-3 29-3 36 1z"/>
</svg>
